<mxfile host="Electron" agent="Mozilla/5.0 (Windows NT 10.0; Win64; x64) AppleWebKit/537.36 (KHTML, like Gecko) draw.io/24.7.8 Chrome/128.0.6613.36 Electron/32.0.1 Safari/537.36" version="24.7.8">
  <diagram name="Page-1" id="ILwAnYFFDMGD3BkJSSbS">
    <mxGraphModel dx="1320" dy="884" grid="1" gridSize="10" guides="1" tooltips="1" connect="1" arrows="1" fold="1" page="1" pageScale="1" pageWidth="827" pageHeight="1169" background="none" math="0" shadow="0">
      <root>
        <mxCell id="0" />
        <mxCell id="1" parent="0" />
        <mxCell id="XJTVWw9fIp58FIYuryTz-1" value="&lt;b&gt;&lt;font style=&quot;font-size: 20px;&quot;&gt;User Flow (login)&lt;/font&gt;&lt;/b&gt;" style="rounded=1;whiteSpace=wrap;html=1;labelBackgroundColor=none;fillColor=#FAE5C7;strokeColor=#0F8B8D;fontColor=#143642;" vertex="1" parent="1">
          <mxGeometry x="129" y="30" width="570" height="60" as="geometry" />
        </mxCell>
        <mxCell id="XJTVWw9fIp58FIYuryTz-2" value="main page" style="ellipse;whiteSpace=wrap;html=1;aspect=fixed;fillColor=#1ba1e2;fontColor=#ffffff;strokeColor=#006EAF;" vertex="1" parent="1">
          <mxGeometry x="374" y="150" width="80" height="80" as="geometry" />
        </mxCell>
        <mxCell id="XJTVWw9fIp58FIYuryTz-6" value="" style="edgeStyle=orthogonalEdgeStyle;rounded=0;orthogonalLoop=1;jettySize=auto;html=1;" edge="1" parent="1" source="XJTVWw9fIp58FIYuryTz-3" target="XJTVWw9fIp58FIYuryTz-5">
          <mxGeometry relative="1" as="geometry" />
        </mxCell>
        <mxCell id="XJTVWw9fIp58FIYuryTz-3" value="login page" style="strokeWidth=2;html=1;shape=mxgraph.flowchart.display;whiteSpace=wrap;fillColor=#1ba1e2;fontColor=#ffffff;strokeColor=#006EAF;" vertex="1" parent="1">
          <mxGeometry x="364" y="290" width="100" height="60" as="geometry" />
        </mxCell>
        <mxCell id="XJTVWw9fIp58FIYuryTz-4" style="edgeStyle=orthogonalEdgeStyle;rounded=0;orthogonalLoop=1;jettySize=auto;html=1;entryX=0.5;entryY=0;entryDx=0;entryDy=0;entryPerimeter=0;" edge="1" parent="1" source="XJTVWw9fIp58FIYuryTz-2" target="XJTVWw9fIp58FIYuryTz-3">
          <mxGeometry relative="1" as="geometry" />
        </mxCell>
        <mxCell id="XJTVWw9fIp58FIYuryTz-31" style="edgeStyle=orthogonalEdgeStyle;rounded=0;orthogonalLoop=1;jettySize=auto;html=1;entryX=0.5;entryY=0;entryDx=0;entryDy=0;fillColor=#fa6800;strokeColor=#C73500;" edge="1" parent="1" source="XJTVWw9fIp58FIYuryTz-5" target="XJTVWw9fIp58FIYuryTz-27">
          <mxGeometry relative="1" as="geometry" />
        </mxCell>
        <mxCell id="XJTVWw9fIp58FIYuryTz-32" style="edgeStyle=orthogonalEdgeStyle;rounded=0;orthogonalLoop=1;jettySize=auto;html=1;entryX=0.5;entryY=0;entryDx=0;entryDy=0;fillColor=#fa6800;strokeColor=#C73500;" edge="1" parent="1" source="XJTVWw9fIp58FIYuryTz-5" target="XJTVWw9fIp58FIYuryTz-23">
          <mxGeometry relative="1" as="geometry" />
        </mxCell>
        <mxCell id="XJTVWw9fIp58FIYuryTz-33" style="edgeStyle=orthogonalEdgeStyle;rounded=0;orthogonalLoop=1;jettySize=auto;html=1;entryX=0.5;entryY=0;entryDx=0;entryDy=0;fillColor=#fa6800;strokeColor=#C73500;" edge="1" parent="1" source="XJTVWw9fIp58FIYuryTz-5" target="XJTVWw9fIp58FIYuryTz-17">
          <mxGeometry relative="1" as="geometry" />
        </mxCell>
        <mxCell id="XJTVWw9fIp58FIYuryTz-34" style="edgeStyle=orthogonalEdgeStyle;rounded=0;orthogonalLoop=1;jettySize=auto;html=1;entryX=0.5;entryY=0;entryDx=0;entryDy=0;fillColor=#fa6800;strokeColor=#C73500;" edge="1" parent="1" source="XJTVWw9fIp58FIYuryTz-5" target="XJTVWw9fIp58FIYuryTz-13">
          <mxGeometry relative="1" as="geometry" />
        </mxCell>
        <mxCell id="XJTVWw9fIp58FIYuryTz-35" style="edgeStyle=orthogonalEdgeStyle;rounded=0;orthogonalLoop=1;jettySize=auto;html=1;fillColor=#fa6800;strokeColor=#C73500;" edge="1" parent="1" source="XJTVWw9fIp58FIYuryTz-5" target="XJTVWw9fIp58FIYuryTz-9">
          <mxGeometry relative="1" as="geometry" />
        </mxCell>
        <mxCell id="XJTVWw9fIp58FIYuryTz-5" value="is authenticated?" style="rhombus;whiteSpace=wrap;html=1;strokeWidth=2;" vertex="1" parent="1">
          <mxGeometry x="364" y="410" width="100" height="100" as="geometry" />
        </mxCell>
        <mxCell id="XJTVWw9fIp58FIYuryTz-9" value="&lt;font style=&quot;font-size: 12px;&quot;&gt;is center_supervisor?&lt;/font&gt;" style="rhombus;whiteSpace=wrap;html=1;strokeWidth=2;fontSize=12;" vertex="1" parent="1">
          <mxGeometry x="30" y="560" width="100" height="100" as="geometry" />
        </mxCell>
        <mxCell id="XJTVWw9fIp58FIYuryTz-11" value="center dashboard" style="strokeWidth=2;html=1;shape=mxgraph.flowchart.display;whiteSpace=wrap;fillColor=#60a917;fontColor=#ffffff;strokeColor=#2D7600;" vertex="1" parent="1">
          <mxGeometry x="30" y="750" width="100" height="60" as="geometry" />
        </mxCell>
        <mxCell id="XJTVWw9fIp58FIYuryTz-12" style="edgeStyle=orthogonalEdgeStyle;rounded=0;orthogonalLoop=1;jettySize=auto;html=1;entryX=0.5;entryY=0;entryDx=0;entryDy=0;entryPerimeter=0;fillColor=#fa6800;strokeColor=#C73500;" edge="1" parent="1" source="XJTVWw9fIp58FIYuryTz-9" target="XJTVWw9fIp58FIYuryTz-11">
          <mxGeometry relative="1" as="geometry" />
        </mxCell>
        <mxCell id="XJTVWw9fIp58FIYuryTz-13" value="is association_supervisor?" style="rhombus;whiteSpace=wrap;html=1;strokeWidth=2;" vertex="1" parent="1">
          <mxGeometry x="214" y="560" width="100" height="100" as="geometry" />
        </mxCell>
        <mxCell id="XJTVWw9fIp58FIYuryTz-15" value="association dashboard" style="strokeWidth=2;html=1;shape=mxgraph.flowchart.display;whiteSpace=wrap;fillColor=#60a917;fontColor=#ffffff;strokeColor=#2D7600;" vertex="1" parent="1">
          <mxGeometry x="214" y="750" width="100" height="60" as="geometry" />
        </mxCell>
        <mxCell id="XJTVWw9fIp58FIYuryTz-17" value="is trainer?" style="rhombus;whiteSpace=wrap;html=1;strokeWidth=2;" vertex="1" parent="1">
          <mxGeometry x="364" y="560" width="100" height="100" as="geometry" />
        </mxCell>
        <mxCell id="XJTVWw9fIp58FIYuryTz-18" value="trainer dashboard" style="strokeWidth=2;html=1;shape=mxgraph.flowchart.display;whiteSpace=wrap;fillColor=#60a917;fontColor=#ffffff;strokeColor=#2D7600;" vertex="1" parent="1">
          <mxGeometry x="364" y="750" width="100" height="60" as="geometry" />
        </mxCell>
        <mxCell id="XJTVWw9fIp58FIYuryTz-23" value="is student" style="rhombus;whiteSpace=wrap;html=1;strokeWidth=2;" vertex="1" parent="1">
          <mxGeometry x="540" y="560" width="100" height="100" as="geometry" />
        </mxCell>
        <mxCell id="XJTVWw9fIp58FIYuryTz-25" value="student dashboard" style="strokeWidth=2;html=1;shape=mxgraph.flowchart.display;whiteSpace=wrap;fillColor=#60a917;fontColor=#ffffff;strokeColor=#2D7600;" vertex="1" parent="1">
          <mxGeometry x="540" y="750" width="100" height="60" as="geometry" />
        </mxCell>
        <mxCell id="XJTVWw9fIp58FIYuryTz-27" value="is admin" style="rhombus;whiteSpace=wrap;html=1;strokeWidth=2;" vertex="1" parent="1">
          <mxGeometry x="680" y="560" width="100" height="100" as="geometry" />
        </mxCell>
        <mxCell id="XJTVWw9fIp58FIYuryTz-28" value="admin&lt;div&gt;dashboard&lt;/div&gt;" style="strokeWidth=2;html=1;shape=mxgraph.flowchart.display;whiteSpace=wrap;fillColor=#60a917;fontColor=#ffffff;strokeColor=#2D7600;" vertex="1" parent="1">
          <mxGeometry x="680" y="750" width="100" height="60" as="geometry" />
        </mxCell>
        <mxCell id="XJTVWw9fIp58FIYuryTz-36" style="edgeStyle=orthogonalEdgeStyle;rounded=0;orthogonalLoop=1;jettySize=auto;html=1;entryX=0.5;entryY=0;entryDx=0;entryDy=0;entryPerimeter=0;fillColor=#fa6800;strokeColor=#C73500;" edge="1" parent="1" source="XJTVWw9fIp58FIYuryTz-13" target="XJTVWw9fIp58FIYuryTz-15">
          <mxGeometry relative="1" as="geometry" />
        </mxCell>
        <mxCell id="XJTVWw9fIp58FIYuryTz-37" style="edgeStyle=orthogonalEdgeStyle;rounded=0;orthogonalLoop=1;jettySize=auto;html=1;entryX=0.5;entryY=0;entryDx=0;entryDy=0;entryPerimeter=0;fillColor=#fa6800;strokeColor=#C73500;" edge="1" parent="1" source="XJTVWw9fIp58FIYuryTz-17" target="XJTVWw9fIp58FIYuryTz-18">
          <mxGeometry relative="1" as="geometry" />
        </mxCell>
        <mxCell id="XJTVWw9fIp58FIYuryTz-38" style="edgeStyle=orthogonalEdgeStyle;rounded=0;orthogonalLoop=1;jettySize=auto;html=1;entryX=0.5;entryY=0;entryDx=0;entryDy=0;entryPerimeter=0;fillColor=#fa6800;strokeColor=#C73500;" edge="1" parent="1" source="XJTVWw9fIp58FIYuryTz-23" target="XJTVWw9fIp58FIYuryTz-25">
          <mxGeometry relative="1" as="geometry" />
        </mxCell>
        <mxCell id="XJTVWw9fIp58FIYuryTz-39" style="edgeStyle=orthogonalEdgeStyle;rounded=0;orthogonalLoop=1;jettySize=auto;html=1;entryX=0.5;entryY=0;entryDx=0;entryDy=0;entryPerimeter=0;fillColor=#fa6800;strokeColor=#C73500;" edge="1" parent="1" source="XJTVWw9fIp58FIYuryTz-27" target="XJTVWw9fIp58FIYuryTz-28">
          <mxGeometry relative="1" as="geometry" />
        </mxCell>
      </root>
    </mxGraphModel>
  </diagram>
</mxfile>
